<?xml version="1.0" standalone="no"?><!DOCTYPE svg PUBLIC "-//W3C//DTD SVG 1.1//EN" "http://www.w3.org/Graphics/SVG/1.1/DTD/svg11.dtd"><svg t="1622859694655" class="icon" viewBox="0 0 1024 1024" version="1.1" xmlns="http://www.w3.org/2000/svg" p-id="1195" xmlns:xlink="http://www.w3.org/1999/xlink" width="128" height="128"><defs><style type="text/css"></style></defs><path d="M725.333333 210.488889H307.2a58.311111 58.311111 0 0 0-59.733333 59.733333v486.4a58.311111 58.311111 0 0 0 59.733333 59.733334h418.133333a58.311111 58.311111 0 0 0 59.733334-59.733334V270.222222a60.017778 60.017778 0 0 0-59.733334-59.733333z m14.222223 543.288889a13.368889 13.368889 0 0 1-14.222223 14.222222H307.2a13.368889 13.368889 0 0 1-14.222222-14.222222v-483.555556a13.368889 13.368889 0 0 1 14.222222-14.222222h418.133333a13.368889 13.368889 0 0 1 14.222223 14.222222z" p-id="1196"></path><path d="M654.222222 642.844444h-281.6a22.755556 22.755556 0 1 0 0 45.511112H654.222222a24.462222 24.462222 0 0 0 22.755556-22.755556 22.471111 22.471111 0 0 0-22.755556-22.755556z m0-105.244444h-281.6a22.755556 22.755556 0 0 0 0 45.511111H654.222222a24.462222 24.462222 0 0 0 22.755556-22.755555 22.471111 22.471111 0 0 0-22.755556-22.755556zM446.577778 426.666667h136.533333a22.755556 22.755556 0 1 0 0-45.511111h-136.533333a22.755556 22.755556 0 0 0 0 45.511111z" p-id="1197"></path></svg>