<?xml version="1.0" standalone="no"?><!DOCTYPE svg PUBLIC "-//W3C//DTD SVG 1.1//EN" "http://www.w3.org/Graphics/SVG/1.1/DTD/svg11.dtd"><svg t="1631088674906" class="icon" viewBox="0 0 1024 1024" version="1.1" xmlns="http://www.w3.org/2000/svg" p-id="4301" xmlns:xlink="http://www.w3.org/1999/xlink" width="200" height="200"><defs><style type="text/css"></style></defs><path d="M671.451429 791.405714l-26.258286 26.258286q-5.12 5.12-12.580571 5.12t-13.165714-5.12l-107.446857-108.032-107.446857 108.032q-5.705143 5.12-13.165714 5.12t-12.580571-5.12l-26.258286-26.258286q-5.12-5.12-5.12-12.580571t5.12-13.165714l108.032-107.446857-108.032-107.446857q-5.12-5.705143-5.12-13.165714t5.12-12.580571l26.258286-26.258286q5.12-5.12 12.580571-5.12t13.165714 5.12l107.446857 107.446857 107.446857-107.446857q5.705143-5.12 13.165714-5.12t12.580571 5.12l26.258286 26.258286q5.12 5.12 5.12 12.580571t-5.12 13.165714l-107.446857 107.446857 107.446857 107.446857q5.12 5.705143 5.12 13.165714t-5.12 12.580571zM109.714286 950.857143l804.571429 0 0-585.142857-804.571429 0 0 585.142857zM329.142857 256l0-164.571429q0-7.972571-5.12-13.165714t-13.165714-5.12l-36.571429 0q-7.972571 0-13.165714 5.12t-5.12 13.165714l0 164.571429q0 7.972571 5.12 13.165714t13.165714 5.12l36.571429 0q7.972571 0 13.165714-5.12t5.12-13.165714zM768 256l0-164.571429q0-7.972571-5.12-13.165714t-13.165714-5.12l-36.571429 0q-7.972571 0-13.165714 5.12t-5.12 13.165714l0 164.571429q0 7.972571 5.12 13.165714t13.165714 5.12l36.571429 0q7.972571 0 13.165714-5.12t5.12-13.165714zM987.428571 219.428571l0 731.428571q0 29.696-21.723429 51.419429t-51.419429 21.723429l-804.571429 0q-29.696 0-51.419429-21.723429t-21.723429-51.419429l0-731.428571q0-29.696 21.723429-51.419429t51.419429-21.723429l73.142857 0 0-54.857143q0-37.741714 26.843429-64.585143t64.585143-26.843429l36.571429 0q37.741714 0 64.585143 26.843429t26.843429 64.585143l0 54.857143 219.428571 0 0-54.857143q0-37.741714 26.843429-64.585143t64.585143-26.843429l36.571429 0q37.741714 0 64.585143 26.843429t26.843429 64.585143l0 54.857143 73.142857 0q29.696 0 51.419429 21.723429t21.723429 51.419429z" p-id="4302" fill="#aaaaaa"></path></svg>