<?xml version="1.0" standalone="no"?><!DOCTYPE svg PUBLIC "-//W3C//DTD SVG 1.1//EN" "http://www.w3.org/Graphics/SVG/1.1/DTD/svg11.dtd"><svg t="1622550698534" class="icon" viewBox="0 0 1024 1024" version="1.1" xmlns="http://www.w3.org/2000/svg" p-id="7011" xmlns:xlink="http://www.w3.org/1999/xlink" width="128" height="128"><defs><style type="text/css"></style></defs><path d="M329.487711 667.732877l120.496351 0 0 0.560772c7.424086 0 13.706163 2.865257 18.283412 7.43432l0 0c4.567016 4.568039 7.994068 10.858302 7.994068 18.291598 0 6.871501-3.426029 13.724583-7.994068 18.291598l0 0c-4.578272 4.588505-10.859325 7.43432-18.283412 7.43432L329.487711 719.745485c-7.433296 0-13.71435-2.844791-18.283412-7.43432-5.13802-4.567016-7.994068-11.420097-7.994068-18.291598 0-7.433296 2.855024-13.723559 7.994068-18.291598l0 0 0 0C315.773362 671.157883 322.054415 667.732877 329.487711 667.732877L329.487711 667.732877zM721.275839 229.216495c43.398416-14.866592 81.08576-34.881438 106.210997-57.181327l0-22.880103c0-9.136078-3.986801-18.273179-10.278087-24.582885-6.272867-6.271844-14.84715-9.717316-24.545022-9.717316l0 0L228.395292 114.854864l0 0c-9.707083 0-18.273179 3.445472-24.555256 9.717316l0 0c-6.281053 6.310729-9.717316 15.446807-9.717316 24.582885l0 22.880103c25.13547 22.299889 62.251809 42.314735 106.232486 57.181327 45.691645 15.989159 98.237395 27.448142 150.771889 32.577976 5.13802-10.859325 13.143345-19.996426 22.851451-26.306132 10.278087-6.853082 22.840194-11.42112 36.546358-11.42112l0 0c13.712303 0 26.27748 4.568039 37.117362 11.42112l0 0c9.715269 6.310729 17.129122 15.446807 22.278399 26.306132C622.456183 256.665661 675.011142 245.205655 721.275839 229.216495L721.275839 229.216495zM500.246817 280.087093c-2.284019 2.865257-3.997034 6.290263-3.997034 10.29753 0 3.986801 1.713015 8.013511 3.997034 10.29753l0 0c2.855024 2.845815 6.281053 4.568039 10.279111 4.568039l0 0 0 0 0 0c3.997034 0 7.423063-1.723248 10.287297-4.568039l0 0c2.845815-2.284019 3.986801-6.310729 3.986801-10.29753l0 0 0 0 0 0c0-4.007267-1.140986-7.433296-3.986801-10.29753l0 0c-2.864234-2.284019-6.28924-3.987824-10.287297-3.987824l0 0C506.526847 276.099269 503.101841 277.803074 500.246817 280.087093L500.246817 280.087093zM817.208748 899.843282c6.290263-6.291287 10.278087-14.866592 10.278087-24.583908L827.486836 237.772358c-29.113061 18.892279-66.23861 34.320667-107.353007 46.882773-46.263673 14.304797-97.676623 24.02109-147.927097 28.609595-4.568039 12.56313-12.56313 22.859637-22.280446 30.293957-10.839883 8.575306-24.543999 13.143345-39.400359 13.143345-14.84715 0-27.982308-4.568039-38.830377-13.143345-10.288321-7.433296-18.283412-17.730826-22.851451-30.293957-50.250474-4.588505-101.653191-14.304797-147.916864-28.609595-41.12463-12.56313-78.240969-27.990494-106.802468-46.882773l0 637.485992c0 9.717316 3.435239 18.292622 9.717316 24.583908l0 0c6.281053 6.28924 14.84715 10.29753 24.555256 10.29753l0 0 564.267411 0 0 0C802.361599 910.139789 810.935881 906.132522 817.208748 899.843282L817.208748 899.843282zM228.395292 62.823837l564.267411 0 0 0c23.984251 0 45.683459 9.717316 61.111846 25.164123 15.407921 16.008602 25.125237 37.746696 25.125237 61.168128l0 726.103286c0 24.023136-9.717316 45.740764-25.125237 61.188594l0 0c-16.008602 15.426341-37.127595 25.14468-61.111846 25.14468l0 0L228.395292 961.592648l0 0c-23.984251 0-45.121664-9.718339-61.110823-25.14468l0 0c-15.417131-15.44783-25.125237-37.165458-25.125237-61.188594L142.159232 149.156088c0-23.421432 9.707083-45.159526 25.125237-61.168128C183.274652 72.54013 204.983069 62.823837 228.395292 62.823837L228.395292 62.823837zM329.487711 748.915851l80.523965 0 0 0c6.854105 0 13.706163 2.844791 18.273179 7.433296l0 0c4.569062 4.568039 7.424086 10.858302 7.424086 18.292622 0 6.852058-2.855024 13.723559-7.424086 18.291598-4.567016 4.569062-11.419074 7.43432-18.273179 7.43432l0 0-80.523965 0 0 0c-7.433296 0-13.71435-2.865257-18.283412-7.43432-5.13802-4.568039-7.994068-11.43954-7.994068-18.291598 0-7.43432 2.855024-13.724583 7.994068-18.292622C315.773362 751.760642 322.054415 748.915851 329.487711 748.915851L329.487711 748.915851z" p-id="7012"></path></svg>