<?xml version="1.0" standalone="no"?><!DOCTYPE svg PUBLIC "-//W3C//DTD SVG 1.1//EN" "http://www.w3.org/Graphics/SVG/1.1/DTD/svg11.dtd"><svg t="1622550783663" class="icon" viewBox="0 0 1066 1024" version="1.1" xmlns="http://www.w3.org/2000/svg" p-id="8359" xmlns:xlink="http://www.w3.org/1999/xlink" width="133.25" height="128"><defs><style type="text/css"></style></defs><path d="M768 85.333333H256a42.666667 42.666667 0 0 0-42.666667 42.666667v682.666667a42.666667 42.666667 0 0 0 42.666667 42.666666h42.666667v42.666667a42.666667 42.666667 0 1 0 85.333333 0v-42.666667h384a128 128 0 0 0 128-128V213.333333a128 128 0 0 0-128-128z m-128 682.666667H298.666667V170.666667h341.333333v597.333333z m170.666667-42.666667a42.666667 42.666667 0 0 1-42.666667 42.666667h-42.666667V170.666667h42.666667a42.666667 42.666667 0 0 1 42.666667 42.666666v512z" fill="#42526E" p-id="8360"></path></svg>