<?xml version="1.0" standalone="no"?><!DOCTYPE svg PUBLIC "-//W3C//DTD SVG 1.1//EN" "http://www.w3.org/Graphics/SVG/1.1/DTD/svg11.dtd"><svg t="1630284550277" class="icon" viewBox="0 0 1024 1024" version="1.1" xmlns="http://www.w3.org/2000/svg" p-id="2161" xmlns:xlink="http://www.w3.org/1999/xlink" width="200" height="200"><defs><style type="text/css"></style></defs><path d="M85.333333 231.381333c0-21.76 17.962667-39.381333 40.149334-39.381333H898.56c22.186667 0 40.149333 17.621333 40.149333 39.381333s-17.962667 39.381333-40.149333 39.381334H125.44A39.765333 39.765333 0 0 1 85.333333 231.381333zM85.333333 512c0-21.76 17.962667-39.381333 40.149334-39.381333H898.56c22.186667 0 40.149333 17.621333 40.149333 39.381333s-17.962667 39.381333-40.149333 39.381333H125.44A39.765333 39.765333 0 0 1 85.333333 512z m40.149334 241.237333a39.765333 39.765333 0 0 0-40.149334 39.381334c0 21.76 17.962667 39.381333 40.149334 39.381333H898.56c22.186667 0 40.149333-17.621333 40.149333-39.381333a39.765333 39.765333 0 0 0-40.149333-39.381334H125.44z" p-id="2162"></path></svg>