<?xml version="1.0" standalone="no"?><!DOCTYPE svg PUBLIC "-//W3C//DTD SVG 1.1//EN" "http://www.w3.org/Graphics/SVG/1.1/DTD/svg11.dtd"><svg t="1630164688962" class="icon" viewBox="0 0 1024 1024" version="1.1" xmlns="http://www.w3.org/2000/svg" p-id="2174" xmlns:xlink="http://www.w3.org/1999/xlink" width="200" height="200"><defs><style type="text/css"></style></defs><path d="M1017.67 7c-8.79-8.79-23.03-8.79-31.82 0L410.84 582.02c-8.79 8.79-8.79 23.03 0 31.82s23.03 8.79 31.82 0l575.02-575.02c8.78-8.79 8.78-23.03-0.01-31.82z" fill="#303133" p-id="2175"></path><path d="M1023.99 593c0 0.17 0.01 0.33 0.01 0.5v-0.5h-0.01zM979 593v0.5c0-0.17 0.01-0.33 0.01-0.5H979z" fill="#303133" p-id="2176"></path><path d="M1001.5 616c-12.43 0-22.5-10.07-22.5-22.5V924c0 30.33-24.67 55-55 55H100c-30.33 0-55-24.67-55-55V100c0-30.33 24.67-55 55-55h361c-12.43 0-22.5-10.07-22.5-22.5S448.57 0 461 0H100C44.77 0 0 44.77 0 100v824c0 55.23 44.77 100 100 100h824c55.23 0 100-44.77 100-100V593.5c0 12.43-10.07 22.5-22.5 22.5z" fill="#303133" p-id="2177"></path><path d="M461 22.5m-22.5 0a22.5 22.5 0 1 0 45 0 22.5 22.5 0 1 0-45 0Z" fill="#303133" p-id="2178"></path><path d="M1001.5 571c-12.26 0-22.22 9.81-22.49 22 0 0.17-0.01 0.33-0.01 0.5 0 12.43 10.07 22.5 22.5 22.5s22.5-10.07 22.5-22.5c0-0.17-0.01-0.33-0.01-0.5-0.27-12.19-10.23-22-22.49-22z" fill="#303133" p-id="2179"></path></svg>