<?xml version="1.0" standalone="no"?><!DOCTYPE svg PUBLIC "-//W3C//DTD SVG 1.1//EN" "http://www.w3.org/Graphics/SVG/1.1/DTD/svg11.dtd"><svg t="1628690242535" class="icon" viewBox="0 0 1024 1024" version="1.1" xmlns="http://www.w3.org/2000/svg" p-id="1995" xmlns:xlink="http://www.w3.org/1999/xlink" width="200" height="200"><defs><style type="text/css"></style></defs><path d="M913.408 506.294857a31.346939 31.346939 0 0 1 2.15249 41.963102l-2.15249 2.382368-292.571429 292.571428a31.346939 31.346939 0 0 1-46.477061-41.963102l2.15249-2.382367 292.571429-292.571429a31.346939 31.346939 0 0 1 44.324571 0z" fill="#2c2c2c" p-id="1996"></path><path d="M913.408 507.820408a31.346939 31.346939 0 0 1-41.942204 46.497959l-2.382367-2.152489-292.571429-292.571429a31.346939 31.346939 0 0 1 41.942204-46.477061l2.382367 2.15249 292.571429 292.571428z" fill="#2c2c2c" p-id="1997"></path><path d="M922.582204 528.049633a31.346939 31.346939 0 0 1-27.898775 31.576816l-3.030205 0.188082-752.32653 10.03102a31.346939 31.346939 0 0 1-3.845225-62.505796l3.009307-0.188082 752.32653-10.03102a31.346939 31.346939 0 0 1 31.764898 30.92898z" fill="#2c2c2c" p-id="1998"></path></svg>