<?xml version="1.0" standalone="no"?><!DOCTYPE svg PUBLIC "-//W3C//DTD SVG 1.1//EN" "http://www.w3.org/Graphics/SVG/1.1/DTD/svg11.dtd"><svg t="1622550550732" class="icon" viewBox="0 0 1228 1024" version="1.1" xmlns="http://www.w3.org/2000/svg" p-id="6211" xmlns:xlink="http://www.w3.org/1999/xlink" width="153.5" height="128"><defs><style type="text/css"></style></defs><path d="M25.6 0h1024v1024H25.6z" fill="#D8D8D8" fill-opacity="0" p-id="6212"></path><path d="M153.898667 395.562667l1.365333 330.965333a42.666667 42.666667 0 0 0 22.656 37.546667l266.496 141.226666a42.666667 42.666667 0 0 0 62.634667-37.888l-1.365334-330.922666a42.666667 42.666667 0 0 0-22.656-37.546667l-266.496-141.226667a42.666667 42.666667 0 0 0-62.634666 37.845334zM601.6 905.301333l266.496-141.226666a42.666667 42.666667 0 0 0 22.698667-37.546667l1.365333-330.965333a42.666667 42.666667 0 0 0-62.677333-37.888L563.029333 498.944a42.666667 42.666667 0 0 0-22.698666 37.546667l-1.365334 330.922666a42.666667 42.666667 0 0 0 62.677334 37.888z" fill="#4A90E2" p-id="6213"></path><path d="M503.04 95.872L224.981333 242.944a42.666667 42.666667 0 0 0 0 75.434667l278.144 146.986666a42.666667 42.666667 0 0 0 39.850667 0l278.144-146.986666a42.666667 42.666667 0 0 0 0-75.434667L542.976 95.872a42.666667 42.666667 0 0 0-39.893333 0z" fill="#4A90E2" fill-opacity=".6" p-id="6214"></path><path d="M823.466667 712.533333m-42.666667 0a42.666667 42.666667 0 1 0 85.333333 0 42.666667 42.666667 0 1 0-85.333333 0Z" fill="#E02020" p-id="6215"></path></svg>