<?xml version="1.0" standalone="no"?><!DOCTYPE svg PUBLIC "-//W3C//DTD SVG 1.1//EN" "http://www.w3.org/Graphics/SVG/1.1/DTD/svg11.dtd"><svg t="1622550446759" class="icon" viewBox="0 0 1024 1024" version="1.1" xmlns="http://www.w3.org/2000/svg" p-id="3474" xmlns:xlink="http://www.w3.org/1999/xlink" width="128" height="128"><defs><style type="text/css"></style></defs><path d="M837.818182 46.545455h-614.4c-46.545455 0-69.818182 32.581818-69.818182 65.163636v111.709091h-27.927273c-23.272727 0-37.236364 18.618182-37.236363 32.581818s13.963636 32.581818 37.236363 32.581818h27.927273v107.054546h-27.927273c-18.618182 0-37.236364 13.963636-37.236363 32.581818 0 18.618182 18.618182 32.581818 37.236363 32.581818h27.927273v102.4h-27.927273c-18.618182 0-37.236364 13.963636-37.236363 32.581818 0 18.618182 13.963636 32.581818 37.236363 32.581818h27.927273v107.054546h-27.927273c-18.618182 0-37.236364 13.963636-37.236363 32.581818s18.618182 32.581818 37.236363 32.581818h27.927273v111.709091c0 55.854545 51.2 60.509091 65.163636 60.509091H837.818182c55.854545 0 97.745455-41.890909 97.745454-93.090909v-744.727273c0-46.545455-41.890909-88.436364-97.745454-88.436363z m0 861.090909h-55.854546V121.018182h55.854546c13.963636 0 27.927273 13.963636 27.927273 23.272727v744.727273c0 9.309091-13.963636 18.618182-27.927273 18.618182z m-614.4-97.745455h27.927273c18.618182 0 37.236364-13.963636 37.236363-32.581818 0-18.618182-18.618182-32.581818-37.236363-32.581818h-27.927273v-107.054546h27.927273c18.618182 0 37.236364-13.963636 37.236363-32.581818 0-18.618182-18.618182-32.581818-37.236363-32.581818h-27.927273V465.454545h27.927273c18.618182 0 37.236364-13.963636 37.236363-32.581818 0-18.618182-18.618182-32.581818-37.236363-32.581818h-27.927273v-107.054545h23.272727c23.272727 0 37.236364-18.618182 37.236364-32.581819s-13.963636-32.581818-37.236364-32.581818h-23.272727v-107.054545h479.418182v795.927273h-479.418182v-107.054546z" p-id="3475" fill="#707070"></path></svg>