<?xml version="1.0" standalone="no"?><!DOCTYPE svg PUBLIC "-//W3C//DTD SVG 1.1//EN" "http://www.w3.org/Graphics/SVG/1.1/DTD/svg11.dtd"><svg t="1630505218786" class="icon" viewBox="0 0 1024 1024" version="1.1" xmlns="http://www.w3.org/2000/svg" p-id="2909" xmlns:xlink="http://www.w3.org/1999/xlink" width="200" height="200"><defs><style type="text/css"></style></defs><path d="M630.153846 157.538462a39.384615 39.384615 0 0 1 39.384616 39.384615v19.692308h59.076923a98.461538 98.461538 0 0 1 98.264615 92.002461L827.076923 315.076923v452.923077a98.461538 98.461538 0 0 1-92.002461 98.264615L728.615385 866.461538h-433.23077a98.461538 98.461538 0 0 1-98.264615-92.002461L196.923077 768V315.076923a98.461538 98.461538 0 0 1 92.002461-98.264615L295.384615 216.615385H354.461538V196.923077a39.384615 39.384615 0 0 1 39.384616-39.384615h236.307692zM354.461538 256H295.384615a59.076923 59.076923 0 0 0-58.80123 53.405538L236.307692 315.076923v452.923077a59.076923 59.076923 0 0 0 53.405539 58.801231L295.384615 827.076923h433.23077a59.076923 59.076923 0 0 0 58.80123-53.405538L787.692308 768V315.076923a59.076923 59.076923 0 0 0-53.405539-58.801231L728.615385 256H669.538462V275.692308a39.384615 39.384615 0 0 1-39.384616 39.384615h-236.307692a39.384615 39.384615 0 0 1-39.384616-39.384615v-19.692308z m118.153847 354.461538a19.692308 19.692308 0 0 1 3.544615 39.069539L472.615385 649.846154H315.076923a19.692308 19.692308 0 0 1-3.544615-39.069539L315.076923 610.461538h157.538462z m236.307692-157.538461a19.692308 19.692308 0 0 1 3.544615 39.069538L708.923077 492.307692H315.076923a19.692308 19.692308 0 0 1-3.544615-39.069538L315.076923 452.923077h393.846154zM630.153846 196.923077h-236.307692v78.769231h236.307692V196.923077z" fill="#333333" p-id="2910"></path></svg>